<svg id="features4" xmlns="http://www.w3.org/2000/svg" width="600" height="600" xmlns:xlink="http://www.w3.org/1999/xlink" viewBox="0 0 600 600"><defs><style>.cls-1{clip-path:url(#clippath);}.cls-2,.cls-3{fill:none;}.cls-2,.cls-4,.cls-5,.cls-6,.cls-7,.cls-8,.cls-9,.cls-10,.cls-11,.cls-12,.cls-13,.cls-14,.cls-15,.cls-16,.cls-17,.cls-18,.cls-19,.cls-20,.cls-21{stroke-width:0px;}.cls-22{stroke-width:.576px;}.cls-22,.cls-23,.cls-3{stroke-linecap:round;stroke-linejoin:round;}.cls-22,.cls-3{stroke:#231815;}.cls-22,.cls-9{fill:#231815;}.cls-23{stroke:#f9be00;stroke-width:2.219px;}.cls-23,.cls-5{fill:#f9be00;}.cls-24{clip-path:url(#clippath-1);}.cls-25{clip-path:url(#clippath-2);}.cls-3{stroke-width:2.454px;}.cls-4{fill:#f3b3cf;}.cls-6{fill:#784600;}.cls-7{fill:#95c4d8;}.cls-8{fill:#36bdef;}.cls-10{fill:#e50012;}.cls-11{fill:#d70029;}.cls-12{fill:#b50005;}.cls-13{fill:#cf7100;}.cls-14{fill:#a30018;}.cls-15{fill:#fff;}.cls-16{fill:#ffe100;}.cls-17{fill:#e63556;}.cls-18{fill:#fccf00;}.cls-19{fill:#ed848c;}.cls-20{fill:#f29600;}.cls-21{fill:#00428d;}</style><clipPath id="clippath"><path class="cls-2" d="m401.575,319.159c-14.319,40.488,5.779,75.154,40.067,87.278,34.285,12.13,71.012-1.054,85.336-41.547,14.322-40.494-.95-93.585-33.468-105.089-32.518-11.499-77.609,18.866-91.935,59.359Z"/></clipPath><clipPath id="clippath-1"><path class="cls-2" d="m340.177,464.836c-44.856,19.674-162.94,36.79-185.411-53.096C-146.608,480.084-14.842,232.936,121.704,103.9,258.25-25.135,422.787-53.127,538.851,53.378c116.064,106.505,132.45,296.305,86.024,399.397-46.426,103.092-126.987,58.032-158.85,23.65-31.536,10.452-74.075,9.32-125.848-11.589Z"/></clipPath><clipPath id="clippath-2"><path class="cls-2" d="m316.375,244.849c10.351,67.17-30.165,109.65-86.871,118.387-56.698,8.727-108.111-19.56-118.448-86.723-8.728-56.651,30.38-108.327,87.056-117.059,56.702-8.757,109.547,28.763,118.263,85.396Z"/></clipPath></defs><rect class="cls-7" width="600" height="600"/><path class="cls-8" d="m340.177,464.555c-44.856,19.674-162.94,36.79-185.411-53.096-82.076-16.416-113.109-191.07,38.258-191.07,29.1-119.384,251.603-128.747,294.134,6.307,104.351-13.187,132.461,127.31,42.177,169.094-.724,61.027-70.817,116.556-189.157,68.765Z"/><path class="cls-20" d="m473.497,381.611c10.92,3.272,19.937,17.042,17.385,37.137-2.1,16.661-15.244,29.464-30.1,26.301-14.858-3.198-19.24-22.697-15.591-37.725,4.267-17.518,17.041-29.098,28.306-25.713Z"/><path class="cls-13" d="m456.219,443.39c.575.3,1.162.575,1.779.822-.839-3.119-1.893-8.638-1.318-15.494-1.383.537-2.293,8.718-.461,14.672Z"/><path class="cls-13" d="m473.66,429.7c.208,6.475-.974,11.685-1.953,14.83.611-.194,1.234-.417,1.828-.661,1.928-5.815,1.439-13.579.125-14.169Z"/><path class="cls-16" d="m407.986,319.896c-5.403-25.856-18.798-35.249-23.177-34.546-4.266.685-2.318,7.306-2.318,7.306-12.964-11.68-25.605-14.368-30.165-10.345-4.36,3.847,1.59,12.37,1.59,12.37-16.958-4.597-15.523,5.248-11.931,15.734,5.454,15.927,24.8,39.504,55.181,40.079,14.026.266,14.511-12.946,10.822-30.599Z"/><path class="cls-5" d="m404.082,306.718c1.518,3.811,2.861,8.185,3.904,13.179,3.69,17.653,3.204,30.865-10.822,30.599-1.045-.019-2.075-.073-3.095-.146-.636-9.871.784-20.462,4.679-31.477,1.474-4.168,3.275-8.227,5.334-12.155Z"/><path class="cls-5" d="m389.827,301.806c-2.442-4.399-7.336-9.151-7.336-9.151,0,0-.277-.947-.393-2.16,6.072,5.225,8.265,9.689,7.73,11.311Z"/><path class="cls-5" d="m360.816,298.468c-3.2-2.263-6.901-3.786-6.901-3.786-.08-.163-.252-.422-.455-.708-.238-.386-.542-.91-.867-1.537,6.937,2.958,8.476,5.101,8.224,6.031Z"/><path class="cls-16" d="m519.031,358.711c21.267-15.667,37.513-13.736,40.308-10.292,2.723,3.355-3.143,6.991-3.143,6.991,17.45-.061,28.663,6.364,29.378,12.403.685,5.774-9.433,8.159-9.433,8.159,15.704,7.881,8.07,14.261-1.599,19.682-14.684,8.233-44.822,12.905-67.848-6.923-10.63-9.154-2.184-19.324,12.337-30.02Z"/><path class="cls-5" d="m519.031,358.711c4.951-3.647,9.624-6.331,13.925-8.274-.922,5.422-2.273,10.753-4.089,15.887-3.874,10.951-9.337,19.959-15.913,27.097-2.132-1.385-4.225-2.936-6.261-4.69-10.63-9.154-2.184-19.324,12.337-30.02Z"/><path class="cls-5" d="m544.627,357.338c4.753-1.65,11.569-1.928,11.569-1.928,0,0,.838-.52,1.734-1.348-8.009-.156-12.62,1.709-13.303,3.276Z"/><path class="cls-5" d="m568.473,374.192c3.895.447,7.668,1.779,7.668,1.779.168-.069.468-.147.812-.224.435-.129,1.011-.317,1.672-.568-7.143-2.42-9.719-1.849-10.151-.988Z"/><path class="cls-10" d="m573.974,295.876c1.564-41.531-54.529-63.314-80.464-36.075l34.999,62.264c5.787-32.746,19.213-44.177,45.466-26.189Z"/><path class="cls-12" d="m493.51,259.801c.657-.69,1.347-1.327,2.041-1.955,18.206,7.203,30.998,27.088,36.247,50.47-1.296,4.043-2.386,8.636-3.289,13.749l-34.999-62.264Z"/><path class="cls-10" d="m408.257,237.26c24.897-33.277,82.213-14.944,85.253,22.541l-66.365,26.412c16.088-29.1,12.837-46.434-18.888-48.953Z"/><path class="cls-12" d="m427.145,286.212c2.878-5.206,5.125-10.029,6.714-14.464,18.689-14.123,40.84-20.795,59.29-14.773.147.932.283,1.869.361,2.826l-66.365,26.411Z"/><path class="cls-10" d="m401.575,319.159c-14.319,40.488,5.779,75.154,40.067,87.278,34.285,12.13,71.012-1.054,85.336-41.547,14.322-40.494-.95-93.585-33.468-105.089-32.518-11.499-77.609,18.866-91.935,59.359Z"/><g class="cls-1"><path class="cls-16" d="m400.381,327.941c4.815-6.372,8.94-8.228,15.541,10.342,2.912,8.207,46.137-12.571,53.551-9.947,7.411,2.623,26.031,47.019,37.19,40.686,11.16-6.33,16.994-9.113,17.521-.196.534,8.914-13.684,64.386-82.083,40.191-68.406-24.195-46.463-74.801-41.72-81.075Z"/></g><path class="cls-20" d="m467.458,370.56c2.932-8.289-1.995-14.11-7.452-16.041-5.458-1.93-12.95-.503-15.884,7.788-2.93,8.285.021,20.366,5.268,22.221,5.247,1.855,15.14-5.681,18.068-13.969Z"/><path class="cls-4" d="m464.905,367.75c-2.15-.02-4.054-.139-8.921-1.858-4.866-1.722-6.895-3.332-8.107-4.164-3.192,9.02-1.076,17.939,2.754,19.294,3.828,1.358,11.083-4.25,14.274-13.272Z"/><path class="cls-15" d="m418.193,312.928c-7.775,21.996-1.914,37.468,11.409,42.181,16.585,5.865,28.995-1.357,38.907-24.38,9.035-20.992,9.419-45.188-6.18-51.639-15.598-6.452-35.81,10.28-44.136,33.838Z"/><path class="cls-15" d="m518.67,348.472c-7.783,21.986-22.069,30.333-35.393,25.62-16.584-5.867-21.695-19.284-14.923-43.423,6.17-22.006,21.087-41.057,37.276-36.265,16.184,4.792,21.377,30.509,13.04,54.067Z"/><path class="cls-9" d="m491.367,336.966c-3.588,8.643-9.57,12.655-14.968,10.427-6.455-2.664-7.394-10.509-4.672-18.525,2.961-8.735,9.069-15.347,15.407-13.117,6.34,2.227,8.095,11.896,4.233,21.214Z"/><path class="cls-15" d="m487.831,328.296c-1.462,3.523-3.898,5.156-6.099,4.247-2.629-1.082-3.012-4.284-1.903-7.544,1.209-3.56,3.694-6.255,6.278-5.344,2.577.908,3.293,4.845,1.723,8.641Z"/><path class="cls-20" d="m416.664,422.275c12.068-2.317,22.269-16.805,19.437-39.34-2.356-18.713-16.467-32.84-34.047-30.881-17.588,1.958-22.925,23.125-18.723,40.176,4.904,19.911,20.864,32.436,33.333,30.044Z"/><path class="cls-13" d="m411.259,375.282c-2.569-.348-6.309-10.478-5.085-23.359.667.021,1.334.045,1.989.112-.486,5.147-.365,13.389,3.097,23.247Z"/><path class="cls-13" d="m395.655,378.505c-2.338-.616-5.637-12.13-4.011-22.169.676-.548,1.387-1.054,2.137-1.51-.759,3.914-1.562,12.27,1.874,23.679Z"/><path class="cls-9" d="m441.085,322.35c11.84-16.251,25.39-5.253,22.236,9.728l-2.139-1.602c.352-13.356-8.6-16.275-16.441-7.428l-3.656-.698Z"/><g class="cls-24"><path class="cls-16" d="m353.249,408.918c-7.894,6.536-11.981,18.443-11.977,35.596.034,13.14-2.576,22.101-7.794,26.45-4.663,3.889-12.637,4.9-23.819,2.973-4.745-.818-9.592,2.318-10.719,7.075-1.189,4.79,1.857,9.384,6.723,10.134,17.068,2.63,29.474.041,38.177-7.616,9.014-7.931,13.139-20.68,12.814-38.696-.219-12.382,2.1-20.934,6.62-24.911,3.081-2.685,7.444-3.567,13.299-2.758,3.808.531,6.937-2.069,7.05-5.794.116-3.691-2.781-7.136-6.524-7.713-9.683-1.519-17.741.201-23.849,5.261Z"/><path class="cls-9" d="m377.098,403.658c3.742.577,6.64,4.022,6.524,7.713-.112,3.725-3.242,6.326-7.05,5.794-2.11-.282-4.001-.358-5.717-.202,3.821-5.74-.491-11.969-3.526-13.671,3.034-.303,6.295-.183,9.769.366Z"/><path class="cls-9" d="m358.178,429.254c-1.512-8.432-9.918-10.766-13.227-8.252,1.85-4.726,4.37-8.543,7.571-11.409,6.332-1.886,10.223,4.316,11.037,10.136-.096.075-.185.135-.286.195-2.268,1.995-3.973,5.154-5.095,9.331Z"/><path class="cls-9" d="m341.272,444.515c.028-2.593.13-5.062.292-7.414,5.325-4.971,12.848-3.204,15.169,2.397-.077,1.68-.116,3.461-.079,5.337.067,3.149-.018,6.14-.257,8.974-3.091-6.466-11.248-7.616-15.391-2.134.178-2.245.281-4.624.266-7.16Z"/><path class="cls-9" d="m331.083,472.494c.856-.438,1.666-.945,2.394-1.531,2.363-1.978,4.194-4.943,5.495-8.787,8.394-3.323,14.533,2.972,13.763,8.526-2.092,5.168-5.033,9.455-8.896,12.828-.4.352-.826.674-1.206.99,1.117-8.876-4.072-13.558-11.55-12.025Z"/><path class="cls-9" d="m303.536,490.474c4.35-8.571,3.763-14.354,3.292-16.529.921-.143,1.866-.168,2.831-.009,4.883.865,9.12,1.089,12.754.812,4.751,5.949,1.347,13.892-.448,17.219-4.879.366-10.314.091-16.302-.822-.767-.127-1.452-.362-2.126-.671Z"/><path class="cls-21" d="m272.05,519.269l17.335,46.427c16.358,1.107,49.704-6.712,58.487-12.741-.538-7.758-10.668-67.623-17.522-90.162-4.193-13.757-66.403-5.819-66.403-5.819"/><path class="cls-21" d="m272.05,519.269l-5.88,50.4c-15.253,3.687-49.426,2.922-59.714-.286-1.199-7.683-5.467-68.74-3.788-92.24,1.034-14.344,63.455-20.417,63.455-20.417"/><path class="cls-11" d="m93.538,308.36c17.991,10.036,70.277,42.676,81.808,48.092,11.535,5.423,33.422,9.736,36.238,17.086.773,1.997,27.762,50.25-17.739,41.514-45.498-8.732-120.719-39.481-134.449-51.015-8.031-6.746,22.15-62.383,34.143-55.678Z"/><path class="cls-16" d="m21.543,344.496c8.005-2.261,30.137-.848,30.137-.848,0,0-20.076-5.372-29.204-10.545-10.421-5.897-5.822-16.642,3.856-16.62,7.181.026,30.341,6.755,30.341,6.755,0,0-15.44-12.181-21.167-18.186-6.608-6.924-.619-17.099,8.485-14.45,7.407,2.155,25.365,13.827,26.846,14.003,1.472.185,12.408,3.161,12.408,3.161-.581-2.433.968-13.639,4.699-19.724,7.219-11.665,15.002-6.827,16.1,1.496,1.097,8.416,3.005,20.198,8.101,27.491,2.278,3.277,5.43,14.228,4.614,25.483-.825,11.236-5.1,25.887-15.119,34.009-10.005,8.109-19.353,8.81-26.56,7.013-4.353-1.078-9.69-1.963-12.816-1.569-5.502.717-13.261,3.581-24.134,3.426-10.005-.147-11.756-8.15-7.672-12.379,5.469-5.711,19.853-7.661,19.853-7.661,0,0-18.143-1.1-28.337-4.089-12.54-3.691-10.084-14.003-.429-16.766Z"/><path class="cls-23" d="m83.605,315.395s-3.744,21.685,16.368,29.613c-5.691-4.682-15.575-7.052-16.368-29.613Z"/><path class="cls-23" d="m71.766,318.535c-6.869,9.048-15.309,21.146-10.328,46.604-5.087-15.668-2.594-33.846,10.328-46.604Z"/><path class="cls-14" d="m182.033,401.144c-3.629-.568-2.646,7.972-2.665,10.266l3.716.981s2.585-10.675-1.052-11.247Z"/><path class="cls-11" d="m291.321,368.33c10.311,15.623,40.333,84.837,45.042,101.629-27.895,45.779-101.683,43.647-138.614,38.276-7.676-19.664-16.574-75.479-16.096-107.617,0,0,20.455-35.723,26.509-43.482,6.052-7.753,38.372-18.931,49.629-11.745,11.254,7.181,33.53,22.939,33.53,22.939Z"/><path class="cls-14" d="m290.846,378.555s-26.003,8.667-32.936,10.072c4.01,20.946,9.902,33.474,27.174,28.623,17.274-4.847,14.128-19.411,5.762-38.695Z"/><path class="cls-11" d="m289.436,381.268s-22.77,7.59-28.842,8.82c3.512,18.342,8.67,29.312,23.795,25.065,15.128-4.246,12.373-16.999,5.046-33.885Z"/><path class="cls-14" d="m288.923,388.471c2.349,5.003,4.394,10.938,14.476,18.996,3.085,2.466,6.579,4.655,10.403,6.402-8.268-18.585-16.736-36.27-21.663-44.243l-3.217,18.845Z"/><path class="cls-11" d="m231.306,337.379c45.459-23.377,97.018,1.597,115.827,24.114,19.784,23.689,14.871,49.018-1.408,52.924-16.298,3.906-30.709-1.263-40.794-9.322-10.082-8.058-12.127-13.993-14.476-18.996"/><path class="cls-14" d="m276.779,333.103c4.59,22.817-14.837,39.175-41.795,44.505-26.955,5.324-51.222-2.368-55.812-25.191-3.869-19.245,14.93-38.72,41.883-44.05,26.95-5.339,51.855,5.492,55.724,24.735Z"/><path class="cls-11" d="m273.587,333.753c4.289,21.323-13.866,36.608-39.058,41.591-25.19,4.976-47.867-2.213-52.156-23.54-3.615-17.984,13.952-36.184,39.14-41.165,25.184-4.991,48.458,5.131,52.074,23.115Z"/><path class="cls-16" d="m262.611,335.99c3.132,15.566-10.714,26.845-29.835,30.629-19.119,3.78-36.266-1.35-39.398-16.919-2.638-13.129,10.777-26.536,29.895-30.318,19.116-3.79,36.698,3.48,39.338,16.608Z"/><path class="cls-16" d="m162.364,199.486c3.203,20.868-11.088,40.382-31.951,43.602-20.869,3.196-40.38-11.11-43.595-31.963-3.205-20.86,11.092-40.369,31.96-43.585,20.858-3.217,40.376,11.086,43.585,31.946Z"/><path class="cls-15" d="m141.336,202.724c1.433,9.266-4.912,17.912-14.154,19.329-9.261,1.443-17.903-4.906-19.342-14.165-1.414-9.253,4.915-17.906,14.174-19.333,9.244-1.418,17.897,4.93,19.322,14.168Z"/><path class="cls-16" d="m244.016,186.916c3.219,20.87,22.735,35.168,43.587,31.965,20.852-3.217,35.16-22.743,31.945-43.597-3.21-20.872-22.717-35.157-43.578-31.947-20.865,3.213-35.173,22.727-31.954,43.578Z"/><path class="cls-15" d="m265.022,183.679c1.441,9.247,10.095,15.603,19.342,14.178,9.254-1.422,15.605-10.088,14.182-19.328-1.433-9.263-10.091-15.599-19.347-14.177-9.246,1.439-15.589,10.081-14.177,19.327Z"/><path class="cls-16" d="m316.375,244.849c10.351,67.17-30.165,109.65-86.871,118.387-56.698,8.727-108.111-19.56-118.448-86.723-8.728-56.651,30.38-108.327,87.056-117.059,56.702-8.757,109.547,28.763,118.263,85.396Z"/><g class="cls-25"><path class="cls-15" d="m229.975,366.232c35.789-5.513,65.126-24.479,79.3-54.594-22.71-20.768-56.611-34.24-93.162-28.536-35.695,5.587-63.478,27.955-79.21,53.811,22.573,25.301,56.737,34.906,93.072,29.319Z"/><path class="cls-9" d="m196.856,188.156c-11.077,2.559-18.642,7.881-18.356,9.796.314,2.023,9.789,2.496,22.061,1.225,1.429-.123,2.898-.307,4.378-.54,1.468-.227,2.915-.482,4.304-.775,12.111-2.523,21.207-5.862,20.887-7.883-.296-1.92-9.333-4.679-20.674-3.784-2.024.171-4.131.412-6.309.755-2.184.338-4.294.749-6.292,1.206Z"/><path class="cls-9" d="m194.379,181.261c2.485-.293,5.04-.64,7.673-1.092,2.799-.479,5.534-1.024,8.131-1.644,16.001-3.676,27.51-8.014,27.109-10.366-.059-.374-.221-1.741-3.019-2.464-9.466-2.419-21.875-2.703-35.246-.567-13.372,2.133-25.645,7.619-31.172,11.221-2.301,1.486-3.416,3.34-3.291,4.136.402,2.371,13.23,2.639,29.816.776Z"/><path class="cls-9" d="m206.634,157.555c.593,2.205,1.187,5.177,1.793,9.193,3.385,21.92,1.189,43.2-2.259,43.724-3.44.534-12.09-19.052-15.45-40.994-.568-3.711-.897-6.58-1.043-8.803l16.959-3.12Z"/><path class="cls-9" d="m105.829,272.716c6.749-4.615,13.037-8.609,18.012-11.576,1.411-.843,1.424-3.255-.077-3.602-4.762-1.114-11.119-1.224-17.908-.446-.441,5.105-.463,10.332-.028,15.623Z"/><path class="cls-9" d="m133.158,297.561c1.38-1.055,1.051-3.423-.613-3.516-5.41-.361-12.534.612-19.876,2.538,1.501,4.528,3.365,8.829,5.582,12.905,5.536-4.654,10.702-8.746,14.906-11.926Z"/><path class="cls-9" d="m299.839,233.244c4.462,1.501,10.055,3.535,16.116,5.98-1.021-4.772-2.351-9.367-3.972-13.807-5.164.925-9.765,2.437-13.037,4.426-1.134.667-.468,2.956.894,3.401Z"/><path class="cls-9" d="m319.438,263.965c-6.029.378-11.579,1.501-15.626,3.249-1.321.562-.98,2.929.465,3.533,3.993,1.663,8.885,3.845,14.166,6.375.647-4.266.978-8.669.995-13.157Z"/></g><line class="cls-3" x1="217.601" y1="287.273" x2="221.953" y2="315.515"/><path class="cls-17" d="m223.441,325.495c14.199-2.174,27.423,2.544,34.597,11.192,5.417-9.72,7.789-21.982,6.328-35.226-.704-6.395-4.037-10.152-8.657-10.517-7.096-.572-24.916,1.659-36.723,3.491-11.833,1.81-28.775,5.371-35.669,7.422-5.69,1.674-5.629,5.966-4.674,13.722,1.33,10.898,7.2,21.876,15.649,29.931,4.55-9.912,15.455-17.888,29.149-20.015Z"/><path class="cls-19" d="m228.448,357.621c13.071-2.021,23.348-9.786,29.59-20.935-7.175-8.648-20.4-13.365-34.597-11.192-13.694,2.127-24.599,10.104-29.148,20.015,9.192,8.75,21.408,14.072,34.155,12.112Z"/><path class="cls-6" d="m208.934,283.666c1.342,3.195,6.223,5.027,8.933,4.687,2.723-.384,6.855-3.556,7.151-6.758.301-3.208-3.562-4.262-7.905-3.675-4.316.598-9.52,2.548-8.179,5.746Z"/><path class="cls-9" d="m148.802,269.005c2.187,15.113,9.285,25.088,18.084,23.803,8.801-1.254,12.672-13.652,10.613-27.943-2.053-14.297-8.851-25.136-18.072-23.804-9.221,1.33-12.795,12.843-10.625,27.944Z"/><path class="cls-15" d="m154.804,259.354c1.024,5.812,3.958,9.343,7.88,8.663,3.92-.696,5.568-5.662,4.635-10.874-.93-5.225-4.446-9.385-8.365-8.681-3.918.695-5.179,5.07-4.15,10.893Z"/><path class="cls-9" d="m277.947,249.396c2.171,15.099-1.828,26.678-10.616,27.947-8.794,1.262-16.014-9.537-18.08-23.816-2.06-14.306,1.403-26.635,10.625-27.959,9.219-1.326,15.884,8.702,18.07,23.828Z"/><path class="cls-15" d="m255.254,243.874c1.017,5.812,3.947,9.339,7.872,8.653,3.925-.705,5.558-5.666,4.638-10.867-.933-5.224-4.433-9.377-8.359-8.694-3.928.706-5.184,5.09-4.151,10.908Z"/><path class="cls-22" d="m258.812,185.067c-6.584.494-12.682,5.216-15.343,11.927-.228.55-.218,1.172.331,1.388.565.274,1.167-.255,1.383-.622,4.104-6.656,9.757-9.94,14.741-9.848,6.124.101,13.897,4.381,18.512,13.135.223.438.462.998.869,1.29,1.054.753,1.562-.235,1.313-1.181-4.4-11.454-14.021-16.696-21.805-16.09Z"/><path class="cls-22" d="m149.508,201.877c6.453-1.398,13.641,1.399,18.099,7.078.372.464.54,1.063.077,1.425-.465.424-1.193.088-1.502-.205-5.826-5.215-12.179-6.757-16.932-5.255-5.843,1.835-12.08,8.149-14.018,17.854-.091.482-.162,1.085-.468,1.482-.795,1.022-1.565.218-1.594-.758.968-12.232,8.704-19.992,16.34-21.621Z"/><path class="cls-22" d="m136.043,310.96c.14.045.236.154.29.301.021.101.027.172.002.26-.057.26-.301.47-.574.476l-.939-.029c-5.8-.184-15.521-.488-24.501,4.684-.221.13-.487.054-.602-.166-.115-.226-.058-.508.18-.689,7.423-6.332,21.508-6.021,26.142-4.837Z"/><path class="cls-22" d="m139.306,319.488h0q.022.005.041.031c.016.043.033.198-.028.469-.149.472-.431.851-.643.897-6.425,1.609-13.341,3.864-21.052,12.071-.147.145-.246.149-.292.128,0,0-.02.003-.03-.038-.046-.208.044-.687.331-1.068,7.02-9.789,18.196-12.854,21.672-12.491Z"/><path class="cls-22" d="m305.548,285.48c-.146.076-.225.2-.217.295-.002.083.022.142.06.201.148.211.435.307.705.234l.902-.24c5.596-1.56,14.94-4.126,25.085-2.338.244.067.477-.067.534-.252.058-.192-.088-.416-.351-.48-8.964-3.049-22.555.547-26.718,2.58Z"/><path class="cls-22" d="m304.131,294.418h0c-.039.024-.026.019-.033.052-.005.019-.036.157.098.36.172.336.534.565.764.571,7.113.153,14.835.713,24.107,5.657.172.094.285.077.322.07.015-.02.019-.02.036-.057.019-.165-.131-.491-.483-.757-8.747-6.243-21.138-6.725-24.812-5.897Z"/><path class="cls-18" d="m269.224,351.841c-4.294,2.151-8.296,8.976-5.333,14.844,2.973,5.894,9.84,12.116,16.435,8.144,6.587-3.979,3.592-10.617-.679-18.132-4.25-7.544-6.797-6.688-10.423-4.856Z"/><path class="cls-16" d="m325.027,367.052c-.417-15.648-7.139-27.792-19.511-35.997-13.331-8.842-30.044-2.391-37.055,4.435-7.469,7.281-6.505,19.83,1.44,21.487l20.555,29.124c.269.861-2.267,3.165,4.864,4.272,21.616,3.353,30.078-9.436,29.707-23.32Z"/><path class="cls-5" d="m294.035,389.895c1.46.511,2.95.638,2.95.638,3.591-1.456,4.44-3.08,3.32-3.59-1.123-.516-7.74,2.442-6.271,2.952Z"/><path class="cls-5" d="m269.241,356.632c-1.522-.343-3.225-2.048-3.225-2.048,4.423-10.721,14.202-13.712,17.239-14.624,1.96-.59,2.717,1.405,2.717,1.405,0,0-15.215,15.611-16.731,15.267Z"/><path class="cls-16" d="m287.946,340.114c-17.347,4.81-28.952,20.297-11.925,28.687,2.081,1.026,6.14-3.6,6.14-3.6"/><path class="cls-5" d="m277.428,368.557c-1.423.757-3.135-1.185-3.135-1.185,1.676-7.391,9.113-14.147,15.602-15.115,1.752-.263,2.449,1.35,2.449,1.35,0,0-13.493,14.176-14.916,14.95Z"/><path class="cls-16" d="m293.402,352.731c-18.188,5.357-25.386,28.474-7.319,28.677,2.335.026,5.719-3.429,5.719-3.429"/><path class="cls-5" d="m288.056,380.721c-1.641.708-4.131.409-4.131.409,1.366-7.182,8.338-12.271,12.304-12.775,2.244-.284,2.3,1.552,2.3,1.552,0,0-8.957,10.157-10.472,10.814Z"/><path class="cls-16" d="m299.044,368.799c-7.915,2.902-15,10.038-13.295,16.541.98,3.726,5.07,6.907,9.569,5.032,1.134-.933,3.136-2.416,5.699-3.619"/></g><polyline class="cls-16" points="332.576 174.256 343.948 220.932 351.984 217.602 347.584 198.582 361.242 193.509 366.035 213.295 373.304 210.879 361.917 162.665 354.773 165.609 359.074 185.884 345.261 190.182 340.153 171.802 332.576 174.256"/><path class="cls-16" d="m398.428,196.173s.23,3.104-3.38,4.76c-3.609,1.653-8.839-1.048-9.638-6.394l18.677-3.337s0-3.335-2.306-6.193c-2.368-2.922-7.097-5.366-11.498-4.941-8.694.844-15.572,11.261-10.347,20.385,5.225,9.125,15.634,8.214,19.017,6.515,3.381-1.705,5.242-9.168,5.242-9.168l-5.768-1.628Zm-8.234-10.362c2.62-.547,5.491,1.427,5.491,1.427l-8.795,1.442s.684-2.317,3.304-2.869Z"/><path class="cls-16" d="m405.896,159.34s11.327,37.544,12.312,41.563c.986,4.014,10.61.153,10.61.153l-2.228-6.973s-1.582,1.313-2.47-.179c-.891-1.492-11.575-36.687-11.575-36.687l-6.649,2.122"/><path class="cls-16" d="m429.08,152.068s11.333,37.545,12.318,41.561c.985,4.017,10.61.153,10.61.153l-2.229-6.968s-1.579,1.311-2.473-.182c-.891-1.493-11.576-36.684-11.576-36.684l-6.651,2.119"/><path class="cls-16" d="m488.408,174.741c-1.759-7.766-8.653-12.823-15.391-11.296-6.743,1.524-10.788,9.05-9.034,16.815,1.759,7.766,8.646,12.824,15.388,11.297,6.743-1.521,10.785-9.05,9.037-16.817Zm-10.561,10.055c-3.502.796-7.081-1.831-7.989-5.861-.911-4.031,1.192-7.938,4.688-8.729,3.495-.787,7.077,1.841,7.984,5.862.909,4.036-1.19,7.941-4.683,8.729Z"/><polyline class="cls-16" points="507.943 143.437 501.12 142.033 503.402 173.403 509.586 173.257 507.943 143.437"/><polyline class="cls-16" points="510.083 178.65 504.023 179.023 504.353 186.852 509.857 186.045 510.083 178.65"/></svg>